<?xml version="1.0" encoding="UTF-8" standalone="no"?>
<!-- This is a Stata 16.1 generated SVG file (http://www.stata.com) -->

<svg version="1.1" width="6.00in" height="4.00in" viewBox="0 0 4320 2880" xmlns="http://www.w3.org/2000/svg" xmlns:xlink="http://www.w3.org/1999/xlink">
	<desc>Stata Graph - mixed_lnemgso</desc>
	<rect x="0" y="0" width="4320" height="2880" style="fill:#FFFFFF;stroke:none"/>
	<rect x="0.00" y="0.00" width="4320.00" height="2880.00" style="fill:#FFFFFF"/>
	<rect x="2.88" y="2.88" width="4314.24" height="2874.24" style="fill:none;stroke:#FFFFFF;stroke-width:5.76"/>
	<rect x="1148.85" y="100.85" width="2359.26" height="2359.30" style="fill:#FFFFFF"/>
	<rect x="1151.73" y="103.73" width="2353.50" height="2353.54" style="fill:none;stroke:#FFFFFF;stroke-width:5.76"/>
	<defs>
		<path id="path_CjjekSLN" d="M1212.16 2396.83 L1212.16 2396.83 L1229.85 2382.11 L1230.53 2381.57 L1234.44 2378.33 L1237.01 2376.17 L1261.58 2355.92 L1268.87 2349.85 L1270.89 2348.23 L1274.40 2345.39 L1278.45 2342.02 L1278.72 2341.75 L1279.53 2341.07 L1281.02 2339.99 L1282.77 2338.37 L1289.92 2332.57 L1290.19 2332.43 L1290.19 2332.30 L1292.09 2330.81 L1292.76 2330.27 L1293.30 2329.87 L1295.87 2327.71 L1300.99 2323.39 L1302.21 2322.44 L1305.32 2319.88 L1310.71 2315.42 L1312.07 2314.34 L1312.34 2314.07 L1315.04 2311.91 L1318.41 2309.08 L1319.22 2308.40 L1327.99 2301.25 L1328.81 2300.57 L1343.92 2288.15 L1348.24 2284.51 L1349.06 2283.83 L1353.51 2280.32 L1354.45 2279.51 L1358.23 2276.41 L1360.39 2274.65 L1360.53 2274.52 L1366.74 2269.39 L1367.55 2268.71 L1368.49 2268.04 L1369.44 2267.23 L1372.14 2265.07 L1373.49 2263.85 L1379.16 2259.26 L1381.45 2257.37 L1390.10 2250.35 L1392.66 2248.19 L1399.55 2242.52 L1401.03 2241.31 L1403.46 2239.41 L1404.27 2238.74 L1407.91 2235.63 L1442.88 2207.28 L1444.10 2206.20 L1444.23 2206.20 L1444.63 2205.80 L1445.31 2205.26 L1445.44 2205.12 L1454.22 2198.10 L1454.76 2197.56 L1462.05 2191.62 L1464.08 2190.00 L1467.18 2187.44 L1467.99 2186.76 L1470.96 2184.47 L1475.95 2180.28 L1481.09 2176.10 L1481.89 2175.42 L1501.74 2159.36 L1506.33 2155.58 L1514.16 2149.37 L1516.18 2147.75 L1516.59 2147.34 L1520.23 2144.37 L1520.37 2144.24 L1531.04 2135.73 L1532.65 2134.38 L1541.43 2127.23 L1552.77 2118.18 L1576.93 2098.61 L1591.11 2087.40 L1602.32 2078.36 L1607.98 2073.77 L1609.07 2072.96 L1610.41 2071.74 L1619.33 2064.59 L1623.24 2061.48 L1628.37 2057.43 L1643.76 2045.15 L1662.66 2030.03 L1681.15 2015.31 L1682.64 2014.10 L1692.36 2006.40 L1697.49 2002.35 L1700.60 1999.92 L1711.53 1991.15 L1728.40 1977.92 L1732.05 1974.95 L1734.62 1973.06 L1736.10 1971.71 L1750.28 1960.64 L1758.78 1953.89 L1761.62 1951.73 L1768.37 1946.33 L1819.39 1906.36 L1827.36 1900.15 L1843.29 1887.73 L1848.56 1883.68 L1865.57 1870.32 L1867.72 1868.70 L1898.37 1844.94 L1917.94 1829.95 L1926.45 1823.34 L1933.47 1817.94 L1967.89 1791.61 L1997.60 1768.93 L1997.73 1768.80 L2007.72 1761.24 L2039.17 1737.48 L2046.73 1731.81 L2072.39 1712.37 L2157.16 1649.46 L2169.05 1640.68 L2173.50 1637.44 L2214.41 1607.47 L2223.18 1601.13 L2224.66 1600.05 L2237.22 1590.86 L2298.24 1546.99 L2342.25 1515.80 L2344.14 1514.32 L2383.02 1487.05 L2387.47 1483.94 L2391.80 1480.84 L2411.51 1467.20 L2417.31 1463.15 L2423.52 1458.83 L2426.62 1456.67 L2428.65 1455.32 L2430.27 1454.11 L2474.55 1423.73 L2483.86 1417.39 L2493.32 1410.91 L2524.09 1390.12 L2542.45 1377.70 L2581.88 1351.37 L2608.74 1333.69 L2628.86 1320.46 L2686.36 1283.06 L2713.91 1265.37 L2746.98 1244.45 L2773.57 1227.71 L2774.93 1226.76 L2779.11 1224.20 L2789.10 1217.99 L2812.99 1203.00 L2815.29 1201.65 L2817.05 1200.57 L2831.09 1191.93 L2841.48 1185.45 L2846.88 1182.21 L2909.52 1144.01 L2920.59 1137.39 L2934.36 1129.02 L2937.60 1127.13 L2942.19 1124.43 L2969.46 1108.23 L2972.84 1106.21 L2978.78 1102.70 L2983.36 1100.00 L2984.58 1099.19 L3041.14 1066.11 L3057.61 1056.53 L3059.10 1055.72 L3061.80 1054.10 L3061.80 1054.10 L3062.47 1053.83 L3066.93 1051.13 L3071.11 1048.83 L3071.25 1048.70 L3087.59 1039.25 L3102.97 1030.47 L3106.49 1028.45 L3114.05 1024.13 L3119.45 1021.02 L3119.85 1020.89 L3124.98 1017.92 L3127.28 1016.70 L3141.18 1008.74 L3152.66 1002.26 L3163.18 996.45 L3166.02 994.83 L3166.97 994.29 L3169.39 992.81 L3170.07 992.54 L3171.01 992.00 L3176.28 989.03 L3177.76 988.22 L3203.01 974.04 L3204.22 973.37 L3204.49 973.23 L3239.32 953.92 L3254.45 945.69 L3254.85 945.42 L3259.03 943.12 L3261.20 942.04 L3267.54 938.40 L3280.36 931.38 L3282.93 930.03 L3288.47 927.06 L3288.87 926.79 L3293.32 924.36 L3294.27 923.82 L3298.45 921.66 L3299.67 920.98 L3309.39 915.72 L3317.22 911.40 L3319.38 910.18 L3325.59 906.94 L3339.49 899.38 L3350.16 893.71 L3352.86 892.23 L3354.34 891.42 L3355.56 890.74 L3359.20 888.85 L3361.23 887.77 L3363.39 886.56 L3366.49 884.94 L3368.93 883.59 L3375.54 880.08 L3380.53 877.38 L3396.20 869.14 L3406.05 863.74 L3408.34 862.66 L3408.75 862.39 L3420.76 856.05 L3424.82 853.89 L3434.53 848.76 L3435.75 848.08 L3444.80 843.36 L3444.80 843.36 L3444.80 843.36 L3444.80 843.36 L3444.80 843.36 L3444.80 843.36 L3444.80 843.36 L3444.80 843.36 L3444.80 164.16 L3444.80 164.16 L3444.80 164.16 L3444.80 164.16 L3444.80 164.16 L3444.80 164.16 L3444.80 164.16 L3444.80 164.16 L3435.75 171.18 L3434.53 172.13 L3424.82 179.69 L3420.76 182.93 L3408.75 192.11 L3408.34 192.51 L3406.05 194.27 L3396.20 201.96 L3380.53 214.11 L3375.54 217.89 L3368.93 223.02 L3366.49 224.91 L3363.39 227.21 L3361.23 228.96 L3359.20 230.58 L3355.56 233.42 L3354.34 234.23 L3352.86 235.44 L3350.16 237.60 L3339.49 245.70 L3325.59 256.50 L3319.38 261.09 L3317.22 262.85 L3309.39 268.79 L3299.67 276.21 L3298.45 277.16 L3294.27 280.26 L3293.32 281.07 L3288.87 284.45 L3288.47 284.72 L3282.93 289.04 L3280.36 290.93 L3267.54 300.65 L3261.20 305.51 L3259.03 307.13 L3254.85 310.37 L3254.45 310.64 L3239.32 321.98 L3204.49 348.31 L3204.22 348.44 L3203.01 349.39 L3177.76 368.29 L3176.28 369.37 L3171.01 373.28 L3170.07 374.09 L3169.39 374.50 L3166.97 376.39 L3166.02 377.06 L3163.18 379.22 L3152.66 387.05 L3141.18 395.56 L3127.28 405.82 L3124.98 407.57 L3119.85 411.35 L3119.45 411.62 L3114.05 415.54 L3106.49 421.21 L3102.97 423.77 L3087.59 434.98 L3071.25 446.99 L3071.11 447.13 L3066.93 450.10 L3062.47 453.47 L3061.80 453.88 L3061.80 453.88 L3059.10 455.90 L3057.61 456.98 L3041.14 468.86 L2984.58 509.77 L2983.36 510.71 L2978.78 513.95 L2972.84 518.14 L2969.46 520.57 L2942.19 540.01 L2937.60 543.25 L2934.36 545.54 L2920.59 555.26 L2909.52 562.96 L2846.88 606.83 L2841.48 610.61 L2831.09 617.77 L2817.05 627.35 L2815.29 628.57 L2812.99 630.05 L2789.10 646.53 L2779.11 653.28 L2774.93 656.11 L2773.57 657.06 L2746.98 675.01 L2713.91 697.29 L2686.36 715.65 L2628.86 753.45 L2608.74 766.54 L2581.88 783.82 L2542.45 809.07 L2524.09 820.81 L2493.32 840.12 L2483.86 846.06 L2474.55 851.86 L2430.27 879.27 L2428.65 880.21 L2426.62 881.43 L2423.52 883.45 L2417.31 887.23 L2411.51 890.74 L2391.80 902.89 L2387.47 905.46 L2383.02 908.16 L2344.14 931.65 L2342.25 932.73 L2298.24 959.05 L2237.22 994.83 L2224.66 1002.12 L2223.18 1002.93 L2214.41 1008.06 L2173.50 1031.55 L2169.05 1034.12 L2157.16 1040.87 L2072.39 1088.66 L2046.73 1102.97 L2039.17 1107.15 L2007.72 1124.43 L1997.73 1129.83 L1997.60 1129.97 L1967.89 1146.17 L1933.47 1164.80 L1926.45 1168.58 L1917.94 1173.17 L1898.37 1183.56 L1867.72 1199.90 L1865.57 1201.11 L1848.56 1210.16 L1843.29 1212.86 L1827.36 1221.23 L1819.39 1225.41 L1768.37 1252.14 L1761.62 1255.65 L1758.78 1257.14 L1750.28 1261.59 L1736.10 1268.88 L1734.62 1269.69 L1732.05 1270.91 L1728.40 1272.80 L1711.53 1281.58 L1700.60 1287.11 L1697.49 1288.73 L1692.36 1291.43 L1682.64 1296.29 L1681.15 1297.10 L1662.66 1306.55 L1643.76 1316.14 L1628.37 1323.97 L1623.24 1326.67 L1619.33 1328.56 L1610.41 1333.15 L1609.07 1333.82 L1607.98 1334.36 L1602.32 1337.20 L1591.11 1342.87 L1576.93 1349.89 L1552.77 1362.04 L1541.43 1367.71 L1532.65 1372.16 L1531.04 1372.97 L1520.37 1378.24 L1520.23 1378.37 L1516.59 1380.13 L1516.18 1380.40 L1514.16 1381.34 L1506.33 1385.26 L1501.74 1387.55 L1481.89 1397.41 L1481.09 1397.81 L1475.95 1400.38 L1470.96 1402.81 L1467.99 1404.29 L1467.18 1404.70 L1464.08 1406.18 L1462.05 1407.26 L1454.76 1410.77 L1454.22 1411.04 L1445.44 1415.36 L1445.31 1415.50 L1444.63 1415.77 L1444.23 1416.04 L1444.10 1416.04 L1442.88 1416.71 L1407.91 1433.86 L1404.27 1435.61 L1403.46 1436.02 L1401.03 1437.23 L1399.55 1437.91 L1392.66 1441.28 L1390.10 1442.50 L1381.45 1446.82 L1379.16 1447.90 L1373.49 1450.60 L1372.14 1451.27 L1369.44 1452.62 L1368.49 1453.03 L1367.55 1453.57 L1366.74 1453.97 L1360.53 1456.94 L1360.39 1457.08 L1358.23 1458.16 L1354.45 1459.91 L1353.51 1460.45 L1349.06 1462.48 L1348.24 1462.88 L1343.92 1465.04 L1328.81 1472.33 L1327.99 1472.74 L1319.22 1477.06 L1318.41 1477.46 L1315.04 1479.08 L1312.34 1480.30 L1312.07 1480.43 L1310.71 1481.11 L1305.32 1483.81 L1302.21 1485.29 L1300.99 1485.83 L1295.87 1488.40 L1293.30 1489.61 L1292.76 1489.88 L1292.09 1490.15 L1290.19 1491.10 L1290.19 1491.10 L1289.92 1491.23 L1282.77 1494.61 L1281.02 1495.55 L1279.53 1496.23 L1278.72 1496.63 L1278.45 1496.77 L1274.40 1498.66 L1270.89 1500.41 L1268.87 1501.36 L1261.58 1504.87 L1237.01 1516.61 L1234.44 1517.83 L1230.53 1519.85 L1229.85 1520.12 L1212.16 1528.49 L1212.16 2396.83 Z" stroke-linejoin="round"/>
	</defs>
	<defs>
		<clipPath id="clipPath_PTlJFaEU">
			<use xlink:href="#path_CjjekSLN"/>
		</clipPath>
	</defs>
	<use xlink:href="#path_CjjekSLN" style="stroke:none;fill:#B0B0B0"/>
	<use xlink:href="#path_CjjekSLN" style="fill:none;stroke:#B0B0B0;stroke-width:17.28" clip-path="url(#clipPath_PTlJFaEU)"/>
	<defs>
		<path id="path_xrqikmdz" d="M1212.16 2051.22 L1212.16 2051.22 L1229.85 2039.07 L1230.53 2038.67 L1234.44 2035.97 L1237.01 2034.21 L1261.58 2017.20 L1268.87 2012.21 L1270.89 2010.86 L1274.40 2008.43 L1278.45 2005.59 L1278.72 2005.46 L1279.53 2004.92 L1281.02 2003.97 L1282.77 2002.62 L1289.92 1997.76 L1290.19 1997.63 L1290.19 1997.63 L1292.09 1996.28 L1292.76 1995.87 L1293.30 1995.47 L1295.87 1993.71 L1300.99 1990.07 L1302.21 1989.26 L1305.32 1987.23 L1310.71 1983.45 L1312.07 1982.51 L1312.34 1982.37 L1315.04 1980.48 L1318.41 1978.19 L1319.22 1977.65 L1327.99 1971.57 L1328.81 1971.03 L1343.92 1960.64 L1348.24 1957.67 L1349.06 1956.99 L1353.51 1954.02 L1354.45 1953.35 L1358.23 1950.78 L1360.39 1949.30 L1360.53 1949.16 L1366.74 1944.84 L1367.55 1944.30 L1368.49 1943.76 L1369.44 1942.95 L1372.14 1941.20 L1373.49 1940.25 L1379.16 1936.47 L1381.45 1934.85 L1390.10 1928.91 L1392.66 1927.16 L1399.55 1922.30 L1401.03 1921.35 L1403.46 1919.73 L1404.27 1919.19 L1407.91 1916.62 L1442.88 1892.59 L1444.10 1891.78 L1444.23 1891.78 L1444.63 1891.38 L1445.31 1890.97 L1445.44 1890.84 L1454.22 1884.90 L1454.76 1884.36 L1462.05 1879.50 L1464.08 1878.01 L1467.18 1875.85 L1467.99 1875.31 L1470.96 1873.42 L1475.95 1869.91 L1481.09 1866.40 L1481.89 1865.86 L1501.74 1852.23 L1506.33 1849.12 L1514.16 1843.72 L1516.18 1842.37 L1516.59 1842.10 L1520.23 1839.54 L1520.37 1839.40 L1531.04 1832.25 L1532.65 1831.03 L1541.43 1824.96 L1552.77 1817.26 L1576.93 1800.66 L1591.11 1791.07 L1602.32 1783.38 L1607.98 1779.60 L1609.07 1778.79 L1610.41 1777.84 L1619.33 1771.77 L1623.24 1769.07 L1628.37 1765.56 L1643.76 1755.03 L1662.66 1742.07 L1681.15 1729.51 L1682.64 1728.57 L1692.36 1721.95 L1697.49 1718.31 L1700.60 1716.28 L1711.53 1708.86 L1728.40 1697.25 L1732.05 1694.82 L1734.62 1693.06 L1736.10 1691.98 L1750.28 1682.40 L1758.78 1676.59 L1761.62 1674.70 L1768.37 1670.11 L1819.39 1635.42 L1827.36 1630.02 L1843.29 1619.22 L1848.56 1615.57 L1865.57 1603.96 L1867.72 1602.61 L1898.37 1581.82 L1917.94 1568.59 L1926.45 1562.78 L1933.47 1558.06 L1967.89 1534.70 L1997.60 1514.72 L1997.73 1514.59 L2007.72 1507.84 L2039.17 1486.64 L2046.73 1481.51 L2072.39 1464.23 L2157.16 1407.26 L2169.05 1399.30 L2173.50 1396.33 L2214.41 1368.92 L2223.18 1363.12 L2224.66 1362.17 L2237.22 1353.67 L2298.24 1313.03 L2342.25 1283.74 L2344.14 1282.52 L2383.02 1256.60 L2387.47 1253.76 L2391.80 1250.93 L2411.51 1237.83 L2417.31 1233.92 L2423.52 1229.87 L2426.62 1227.71 L2428.65 1226.49 L2430.27 1225.28 L2474.55 1196.12 L2483.86 1190.04 L2493.32 1183.83 L2524.09 1163.58 L2542.45 1151.43 L2581.88 1125.51 L2608.74 1107.96 L2628.86 1094.87 L2686.36 1057.20 L2713.91 1039.38 L2746.98 1017.92 L2773.57 1000.64 L2774.93 999.69 L2779.11 996.99 L2789.10 990.51 L2812.99 974.99 L2815.29 973.64 L2817.05 972.42 L2831.09 963.38 L2841.48 956.76 L2846.88 953.25 L2909.52 912.75 L2920.59 905.73 L2934.36 896.82 L2937.60 894.79 L2942.19 891.82 L2969.46 874.41 L2972.84 872.11 L2978.78 868.47 L2983.36 865.50 L2984.58 864.69 L3041.14 828.51 L3057.61 817.98 L3059.10 817.03 L3061.80 815.28 L3061.80 815.28 L3062.47 814.87 L3066.93 812.04 L3071.11 809.34 L3071.25 809.34 L3087.59 798.81 L3102.97 789.09 L3106.49 786.79 L3114.05 781.93 L3119.45 778.56 L3119.85 778.29 L3124.98 775.05 L3127.28 773.56 L3141.18 764.79 L3152.66 757.50 L3163.18 750.75 L3166.02 748.99 L3166.97 748.45 L3169.39 746.83 L3170.07 746.43 L3171.01 745.75 L3176.28 742.38 L3177.76 741.57 L3203.01 725.50 L3204.22 724.69 L3204.49 724.56 L3239.32 702.55 L3254.45 692.97 L3254.85 692.70 L3259.03 690.00 L3261.20 688.78 L3267.54 684.60 L3280.36 676.50 L3282.93 675.01 L3288.47 671.50 L3288.87 671.23 L3293.32 668.40 L3294.27 667.72 L3298.45 665.16 L3299.67 664.35 L3309.39 658.27 L3317.22 653.28 L3319.38 651.93 L3325.59 648.15 L3339.49 639.37 L3350.16 632.62 L3352.86 630.86 L3354.34 629.92 L3355.56 629.11 L3359.20 626.81 L3361.23 625.60 L3363.39 624.25 L3366.49 622.36 L3368.93 620.74 L3375.54 616.55 L3380.53 613.45 L3396.20 603.59 L3406.05 597.38 L3408.34 596.03 L3408.75 595.63 L3420.76 588.20 L3424.82 585.64 L3434.53 579.43 L3435.75 578.75 L3444.80 573.08 L3444.80 573.08 L3444.80 573.08 L3444.80 573.08 L3444.80 573.08 L3444.80 573.08 L3444.80 573.08 L3444.80 573.08 L3444.80 434.44 L3444.80 434.44 L3444.80 434.44 L3444.80 434.44 L3444.80 434.44 L3444.80 434.44 L3444.80 434.44 L3444.80 434.44 L3435.75 440.51 L3434.53 441.32 L3424.82 447.94 L3420.76 450.77 L3408.75 458.87 L3408.34 459.28 L3406.05 460.76 L3396.20 467.51 L3380.53 478.04 L3375.54 481.42 L3368.93 485.87 L3366.49 487.63 L3363.39 489.65 L3361.23 491.14 L3359.20 492.49 L3355.56 494.92 L3354.34 495.73 L3352.86 496.81 L3350.16 498.70 L3339.49 505.85 L3325.59 515.30 L3319.38 519.49 L3317.22 520.84 L3309.39 526.24 L3299.67 532.72 L3298.45 533.66 L3294.27 536.36 L3293.32 537.04 L3288.87 540.14 L3288.47 540.41 L3282.93 544.06 L3280.36 545.81 L3267.54 554.45 L3261.20 558.77 L3259.03 560.12 L3254.85 563.09 L3254.45 563.36 L3239.32 573.49 L3204.49 596.98 L3204.22 597.11 L3203.01 597.92 L3177.76 614.93 L3176.28 615.88 L3171.01 619.52 L3170.07 620.20 L3169.39 620.60 L3166.97 622.22 L3166.02 622.90 L3163.18 624.79 L3152.66 631.81 L3141.18 639.64 L3127.28 648.96 L3124.98 650.44 L3119.85 653.95 L3119.45 654.09 L3114.05 657.73 L3106.49 662.86 L3102.97 665.16 L3087.59 675.42 L3071.25 686.49 L3071.11 686.49 L3066.93 689.32 L3062.47 692.29 L3061.80 692.70 L3061.80 692.83 L3059.10 694.59 L3057.61 695.53 L3041.14 706.60 L2984.58 744.27 L2983.36 745.21 L2978.78 748.18 L2972.84 752.10 L2969.46 754.39 L2942.19 772.62 L2937.60 775.59 L2934.36 777.75 L2920.59 786.93 L2909.52 794.22 L2846.88 835.80 L2841.48 839.31 L2831.09 846.19 L2817.05 855.37 L2815.29 856.59 L2812.99 858.07 L2789.10 873.87 L2779.11 880.48 L2774.93 883.32 L2773.57 884.13 L2746.98 901.68 L2713.91 923.41 L2686.36 941.37 L2628.86 979.04 L2608.74 992.27 L2581.88 1009.68 L2542.45 1035.33 L2524.09 1047.35 L2493.32 1067.33 L2483.86 1073.40 L2474.55 1079.48 L2430.27 1107.96 L2428.65 1109.04 L2426.62 1110.39 L2423.52 1112.42 L2417.31 1116.33 L2411.51 1120.11 L2391.80 1132.94 L2387.47 1135.64 L2383.02 1138.47 L2344.14 1163.58 L2342.25 1164.80 L2298.24 1193.01 L2237.22 1232.03 L2224.66 1240.13 L2223.18 1240.94 L2214.41 1246.61 L2173.50 1272.66 L2169.05 1275.50 L2157.16 1283.06 L2072.39 1336.93 L2046.73 1353.13 L2039.17 1357.99 L2007.72 1377.83 L1997.73 1384.18 L1997.60 1384.31 L1967.89 1402.94 L1933.47 1424.68 L1926.45 1429.13 L1917.94 1434.53 L1898.37 1446.82 L1867.72 1466.12 L1865.57 1467.34 L1848.56 1478.14 L1843.29 1481.38 L1827.36 1491.37 L1819.39 1496.36 L1768.37 1528.36 L1761.62 1532.68 L1758.78 1534.30 L1750.28 1539.70 L1736.10 1548.61 L1734.62 1549.55 L1732.05 1551.17 L1728.40 1553.33 L1711.53 1564.00 L1700.60 1570.75 L1697.49 1572.77 L1692.36 1575.88 L1682.64 1581.95 L1681.15 1582.90 L1662.66 1594.51 L1643.76 1606.26 L1628.37 1615.84 L1623.24 1619.08 L1619.33 1621.51 L1610.41 1627.05 L1609.07 1627.99 L1607.98 1628.67 L1602.32 1632.04 L1591.11 1639.06 L1576.93 1647.84 L1552.77 1662.96 L1541.43 1669.98 L1532.65 1675.51 L1531.04 1676.46 L1520.37 1683.07 L1520.23 1683.21 L1516.59 1685.50 L1516.18 1685.77 L1514.16 1686.99 L1506.33 1691.85 L1501.74 1694.68 L1481.89 1706.97 L1481.09 1707.51 L1475.95 1710.75 L1470.96 1713.85 L1467.99 1715.61 L1467.18 1716.15 L1464.08 1718.04 L1462.05 1719.39 L1454.76 1723.84 L1454.22 1724.25 L1445.44 1729.65 L1445.31 1729.78 L1444.63 1730.19 L1444.23 1730.46 L1444.10 1730.46 L1442.88 1731.27 L1407.91 1752.87 L1404.27 1755.16 L1403.46 1755.70 L1401.03 1757.19 L1399.55 1758.13 L1392.66 1762.45 L1390.10 1764.07 L1381.45 1769.34 L1379.16 1770.82 L1373.49 1774.20 L1372.14 1775.14 L1369.44 1776.76 L1368.49 1777.30 L1367.55 1777.98 L1366.74 1778.38 L1360.53 1782.30 L1360.39 1782.43 L1358.23 1783.78 L1354.45 1786.08 L1353.51 1786.75 L1349.06 1789.32 L1348.24 1789.86 L1343.92 1792.56 L1328.81 1801.87 L1327.99 1802.41 L1319.22 1807.95 L1318.41 1808.35 L1315.04 1810.51 L1312.34 1812.13 L1312.07 1812.27 L1310.71 1813.08 L1305.32 1816.45 L1302.21 1818.48 L1300.99 1819.15 L1295.87 1822.39 L1293.30 1823.88 L1292.76 1824.28 L1292.09 1824.69 L1290.19 1825.90 L1290.19 1825.90 L1289.92 1826.04 L1282.77 1830.36 L1281.02 1831.57 L1279.53 1832.38 L1278.72 1832.92 L1278.45 1833.06 L1274.40 1835.62 L1270.89 1837.78 L1268.87 1839.00 L1261.58 1843.45 L1237.01 1858.71 L1234.44 1860.33 L1230.53 1862.76 L1229.85 1863.16 L1212.16 1874.10 L1212.16 2051.22 Z" stroke-linejoin="round"/>
	</defs>
	<defs>
		<clipPath id="clipPath_QExuoFEs">
			<use xlink:href="#path_xrqikmdz"/>
		</clipPath>
	</defs>
	<use xlink:href="#path_xrqikmdz" style="stroke:none;fill:#707070"/>
	<use xlink:href="#path_xrqikmdz" style="fill:none;stroke:#707070;stroke-width:17.28" clip-path="url(#clipPath_QExuoFEs)"/>
	<path d=" M1212.16 1962.80 L1229.85 1951.19 L1230.39 1950.78 L1234.44 1948.22 L1237.01 1946.46 L1261.58 1930.40 L1268.87 1925.67 L1270.76 1924.32 L1274.40 1922.03 L1278.45 1919.46 L1278.59 1919.32 L1279.39 1918.78 L1280.88 1917.84 L1282.77 1916.62 L1289.79 1912.03 L1290.06 1911.76 L1290.19 1911.76 L1291.95 1910.55 L1292.62 1910.14 L1293.16 1909.74 L1295.73 1908.12 L1300.99 1904.74 L1302.08 1903.93 L1305.18 1901.91 L1310.71 1898.26 L1312.07 1897.45 L1312.34 1897.32 L1314.90 1895.56 L1318.28 1893.40 L1319.09 1892.86 L1327.99 1887.06 L1328.81 1886.52 L1343.79 1876.66 L1348.24 1873.83 L1349.06 1873.29 L1353.38 1870.45 L1354.32 1869.78 L1358.10 1867.35 L1360.26 1865.86 L1360.53 1865.73 L1366.74 1861.68 L1367.55 1861.14 L1368.49 1860.60 L1369.44 1859.92 L1372.01 1858.30 L1373.49 1857.36 L1379.03 1853.71 L1381.45 1852.09 L1389.96 1846.56 L1392.66 1844.80 L1399.55 1840.35 L1401.03 1839.40 L1403.33 1837.78 L1404.13 1837.24 L1407.91 1834.81 L1442.74 1812.00 L1444.10 1811.19 L1444.10 1811.19 L1444.63 1810.78 L1445.17 1810.38 L1445.31 1810.38 L1454.09 1804.57 L1454.76 1804.17 L1461.91 1799.44 L1464.08 1798.09 L1467.18 1796.07 L1467.99 1795.53 L1470.83 1793.64 L1475.82 1790.40 L1480.95 1787.02 L1481.89 1786.48 L1501.74 1773.52 L1506.33 1770.55 L1514.03 1765.42 L1516.05 1764.07 L1516.45 1763.80 L1520.23 1761.51 L1520.37 1761.37 L1530.90 1754.35 L1532.65 1753.27 L1541.43 1747.60 L1552.77 1740.18 L1576.93 1724.38 L1590.97 1715.20 L1602.32 1707.78 L1607.85 1704.13 L1608.93 1703.46 L1610.41 1702.51 L1619.33 1696.71 L1623.11 1694.14 L1628.37 1690.77 L1643.76 1680.78 L1662.66 1668.36 L1681.15 1656.34 L1682.64 1655.26 L1692.22 1649.05 L1697.49 1645.54 L1700.46 1643.65 L1711.53 1636.50 L1728.40 1625.43 L1731.91 1623.00 L1734.48 1621.38 L1736.10 1620.43 L1750.14 1611.12 L1758.78 1605.58 L1761.48 1603.69 L1768.37 1599.23 L1819.26 1566.02 L1827.22 1560.76 L1843.15 1550.36 L1848.42 1546.99 L1865.57 1535.78 L1867.59 1534.43 L1898.37 1514.32 L1917.81 1501.63 L1926.45 1495.96 L1933.34 1491.37 L1967.76 1468.96 L1997.46 1449.52 L1997.73 1449.38 L2007.59 1442.90 L2039.04 1422.38 L2046.73 1417.39 L2072.39 1400.65 L2157.16 1345.16 L2169.05 1337.47 L2173.36 1334.63 L2214.41 1307.77 L2223.05 1302.10 L2224.53 1301.15 L2237.22 1292.92 L2298.11 1253.09 L2342.11 1224.33 L2344.01 1223.12 L2383.02 1197.60 L2387.34 1194.77 L2391.66 1191.93 L2411.37 1178.97 L2417.31 1175.19 L2423.52 1171.14 L2426.62 1169.12 L2428.51 1167.90 L2430.27 1166.69 L2474.41 1137.93 L2483.86 1131.72 L2493.18 1125.65 L2523.96 1105.53 L2542.45 1093.38 L2581.88 1067.73 L2608.61 1050.18 L2628.72 1036.95 L2686.36 999.42 L2713.91 981.47 L2746.98 959.86 L2773.44 942.45 L2774.79 941.50 L2779.11 938.80 L2788.97 932.32 L2812.99 916.66 L2815.29 915.18 L2817.05 913.96 L2830.95 904.92 L2841.34 898.03 L2846.88 894.52 L2909.52 853.62 L2920.45 846.33 L2934.36 837.42 L2937.60 835.26 L2942.05 832.29 L2969.32 814.47 L2972.84 812.17 L2978.64 808.39 L2983.23 805.42 L2984.45 804.61 L3041.14 767.62 L3057.48 756.82 L3058.97 755.88 L3061.66 754.12 L3061.80 754.12 L3062.34 753.72 L3066.93 750.75 L3070.98 748.05 L3071.11 747.91 L3087.59 737.25 L3102.84 727.26 L3106.35 724.96 L3114.05 719.97 L3119.45 716.32 L3119.72 716.19 L3124.84 712.81 L3127.14 711.33 L3141.05 702.28 L3152.66 694.72 L3163.05 687.84 L3166.02 685.95 L3166.83 685.41 L3169.39 683.79 L3169.93 683.38 L3171.01 682.71 L3176.28 679.20 L3177.76 678.25 L3203.01 661.78 L3204.22 660.97 L3204.49 660.84 L3239.32 638.02 L3254.45 628.16 L3254.72 628.03 L3259.03 625.19 L3261.06 623.84 L3267.54 619.66 L3280.36 611.29 L3282.80 609.67 L3288.33 606.02 L3288.74 605.75 L3293.32 602.78 L3294.27 602.11 L3298.45 599.41 L3299.67 598.60 L3309.26 592.25 L3317.22 587.12 L3319.38 585.77 L3325.45 581.72 L3339.36 572.68 L3350.03 565.66 L3352.86 563.90 L3354.34 562.96 L3355.43 562.15 L3359.20 559.72 L3361.23 558.37 L3363.39 557.02 L3366.36 554.99 L3368.93 553.37 L3375.41 549.05 L3380.40 545.81 L3396.06 535.55 L3406.05 529.07 L3408.21 527.72 L3408.75 527.32 L3420.63 519.62 L3424.82 516.79 L3434.53 510.44 L3435.75 509.77 L3444.66 503.83 L3444.66 503.83 L3444.66 503.83 L3444.66 503.83 L3444.66 503.83 L3444.66 503.83 L3444.66 503.83 L3444.66 503.83" stroke-linejoin="round" style="fill:none;stroke:#000000;stroke-width:8.64"/>
	<line x1="1148.85" y1="2460.14" x2="1148.85" y2="100.85" style="stroke:#000000;stroke-width:5.76"/>
	<line x1="1148.85" y1="2295.44" x2="1108.89" y2="2295.44" style="stroke:#000000;stroke-width:5.76"/>
	<text x="1088.91" y="2323.45" style="font-family:'Helvetica';font-size:79.92px;fill:#000000" text-anchor="end">-6</text>
	<line x1="1148.85" y1="1769.34" x2="1108.89" y2="1769.34" style="stroke:#000000;stroke-width:5.76"/>
	<text x="1088.91" y="1797.34" style="font-family:'Helvetica';font-size:79.92px;fill:#000000" text-anchor="end">-5</text>
	<line x1="1148.85" y1="1243.10" x2="1108.89" y2="1243.10" style="stroke:#000000;stroke-width:5.76"/>
	<text x="1088.91" y="1271.11" style="font-family:'Helvetica';font-size:79.92px;fill:#000000" text-anchor="end">-4</text>
	<line x1="1148.85" y1="716.86" x2="1108.89" y2="716.86" style="stroke:#000000;stroke-width:5.76"/>
	<text x="1088.91" y="744.87" style="font-family:'Helvetica';font-size:79.92px;fill:#000000" text-anchor="end">-3</text>
	<line x1="1148.85" y1="190.76" x2="1108.89" y2="190.76" style="stroke:#000000;stroke-width:5.76"/>
	<text x="1088.91" y="218.76" style="font-family:'Helvetica';font-size:79.92px;fill:#000000" text-anchor="end">-2</text>
	<text x="922.31" y="1280.50" style="font-family:'Helvetica';font-size:79.92px;fill:#000000" transform="rotate(-90 922.31,1280.50)" text-anchor="middle">EMG SO [ln(mV)]</text>
	<line x1="1148.85" y1="2460.14" x2="3508.11" y2="2460.14" style="stroke:#000000;stroke-width:5.76"/>
	<line x1="1254.96" y1="2460.14" x2="1254.96" y2="2500.10" style="stroke:#000000;stroke-width:5.76"/>
	<text x="1254.96" y="2575.96" style="font-family:'Helvetica';font-size:79.92px;fill:#000000" text-anchor="middle">0</text>
	<line x1="1692.90" y1="2460.14" x2="1692.90" y2="2500.10" style="stroke:#000000;stroke-width:5.76"/>
	<text x="1692.90" y="2575.96" style="font-family:'Helvetica';font-size:79.92px;fill:#000000" text-anchor="middle">20</text>
	<line x1="2130.84" y1="2460.14" x2="2130.84" y2="2500.10" style="stroke:#000000;stroke-width:5.76"/>
	<text x="2130.84" y="2575.96" style="font-family:'Helvetica';font-size:79.92px;fill:#000000" text-anchor="middle">40</text>
	<line x1="2568.91" y1="2460.14" x2="2568.91" y2="2500.10" style="stroke:#000000;stroke-width:5.76"/>
	<text x="2568.91" y="2575.96" style="font-family:'Helvetica';font-size:79.92px;fill:#000000" text-anchor="middle">60</text>
	<line x1="3006.86" y1="2460.14" x2="3006.86" y2="2500.10" style="stroke:#000000;stroke-width:5.76"/>
	<text x="3006.86" y="2575.96" style="font-family:'Helvetica';font-size:79.92px;fill:#000000" text-anchor="middle">80</text>
	<line x1="3444.80" y1="2460.14" x2="3444.80" y2="2500.10" style="stroke:#000000;stroke-width:5.76"/>
	<text x="3444.80" y="2575.96" style="font-family:'Helvetica';font-size:79.92px;fill:#000000" text-anchor="middle">100</text>
	<text x="2328.48" y="2700.57" style="font-family:'Helvetica';font-size:79.92px;fill:#000000" text-anchor="middle">Activation [%]</text>
</svg>
