<?xml version="1.0" encoding="utf-8" standalone="no"?>
<!DOCTYPE svg PUBLIC "-//W3C//DTD SVG 1.1//EN"
  "http://www.w3.org/Graphics/SVG/1.1/DTD/svg11.dtd">
<!-- Created with matplotlib (https://matplotlib.org/) -->
<svg height="504pt" version="1.1" viewBox="0 0 792 504" width="792pt" xmlns="http://www.w3.org/2000/svg" xmlns:xlink="http://www.w3.org/1999/xlink">
 <metadata>
  <rdf:RDF xmlns:cc="http://creativecommons.org/ns#" xmlns:dc="http://purl.org/dc/elements/1.1/" xmlns:rdf="http://www.w3.org/1999/02/22-rdf-syntax-ns#">
   <cc:Work>
    <dc:type rdf:resource="http://purl.org/dc/dcmitype/StillImage"/>
    <dc:date>2020-12-04T09:56:23.048195</dc:date>
    <dc:format>image/svg+xml</dc:format>
    <dc:creator>
     <cc:Agent>
      <dc:title>Matplotlib v3.3.2, https://matplotlib.org/</dc:title>
     </cc:Agent>
    </dc:creator>
   </cc:Work>
  </rdf:RDF>
 </metadata>
 <defs>
  <style type="text/css">*{stroke-linecap:butt;stroke-linejoin:round;}</style>
 </defs>
 <g id="figure_1">
  <g id="patch_1">
   <path d="M 0 504 
L 792 504 
L 792 0 
L 0 0 
z
" style="fill:#ffffff;"/>
  </g>
  <g id="axes_1">
   <g id="patch_2">
    <path d="M 51.05 215.44 
L 776.874607 215.44 
L 776.874607 10.8 
L 51.05 10.8 
z
" style="fill:#ffffff;"/>
   </g>
   <g id="matplotlib.axis_1">
    <g id="xtick_1">
     <g id="line2d_1">
      <defs>
       <path d="M 0 0 
L 0 3.5 
" id="m07499665e2" style="stroke:#000000;stroke-width:0.8;"/>
      </defs>
      <g>
       <use style="stroke:#000000;stroke-width:0.8;" x="51.05" xlink:href="#m07499665e2" y="215.44"/>
      </g>
     </g>
     <g id="text_1">
      <!-- 0 -->
      <g transform="translate(47.86875 230.038437)scale(0.1 -0.1)">
       <defs>
        <path d="M 31.78125 66.40625 
Q 24.171875 66.40625 20.328125 58.90625 
Q 16.5 51.421875 16.5 36.375 
Q 16.5 21.390625 20.328125 13.890625 
Q 24.171875 6.390625 31.78125 6.390625 
Q 39.453125 6.390625 43.28125 13.890625 
Q 47.125 21.390625 47.125 36.375 
Q 47.125 51.421875 43.28125 58.90625 
Q 39.453125 66.40625 31.78125 66.40625 
z
M 31.78125 74.21875 
Q 44.046875 74.21875 50.515625 64.515625 
Q 56.984375 54.828125 56.984375 36.375 
Q 56.984375 17.96875 50.515625 8.265625 
Q 44.046875 -1.421875 31.78125 -1.421875 
Q 19.53125 -1.421875 13.0625 8.265625 
Q 6.59375 17.96875 6.59375 36.375 
Q 6.59375 54.828125 13.0625 64.515625 
Q 19.53125 74.21875 31.78125 74.21875 
z
" id="DejaVuSans-48"/>
       </defs>
       <use xlink:href="#DejaVuSans-48"/>
      </g>
     </g>
    </g>
    <g id="xtick_2">
     <g id="line2d_2">
      <g>
       <use style="stroke:#000000;stroke-width:0.8;" x="171.613865" xlink:href="#m07499665e2" y="215.44"/>
      </g>
     </g>
     <g id="text_2">
      <!-- 2 -->
      <g transform="translate(168.432615 230.038437)scale(0.1 -0.1)">
       <defs>
        <path d="M 19.1875 8.296875 
L 53.609375 8.296875 
L 53.609375 0 
L 7.328125 0 
L 7.328125 8.296875 
Q 12.9375 14.109375 22.625 23.890625 
Q 32.328125 33.6875 34.8125 36.53125 
Q 39.546875 41.84375 41.421875 45.53125 
Q 43.3125 49.21875 43.3125 52.78125 
Q 43.3125 58.59375 39.234375 62.25 
Q 35.15625 65.921875 28.609375 65.921875 
Q 23.96875 65.921875 18.8125 64.3125 
Q 13.671875 62.703125 7.8125 59.421875 
L 7.8125 69.390625 
Q 13.765625 71.78125 18.9375 73 
Q 24.125 74.21875 28.421875 74.21875 
Q 39.75 74.21875 46.484375 68.546875 
Q 53.21875 62.890625 53.21875 53.421875 
Q 53.21875 48.921875 51.53125 44.890625 
Q 49.859375 40.875 45.40625 35.40625 
Q 44.1875 33.984375 37.640625 27.21875 
Q 31.109375 20.453125 19.1875 8.296875 
z
" id="DejaVuSans-50"/>
       </defs>
       <use xlink:href="#DejaVuSans-50"/>
      </g>
     </g>
    </g>
    <g id="xtick_3">
     <g id="line2d_3">
      <g>
       <use style="stroke:#000000;stroke-width:0.8;" x="292.17773" xlink:href="#m07499665e2" y="215.44"/>
      </g>
     </g>
     <g id="text_3">
      <!-- 4 -->
      <g transform="translate(288.99648 230.038437)scale(0.1 -0.1)">
       <defs>
        <path d="M 37.796875 64.3125 
L 12.890625 25.390625 
L 37.796875 25.390625 
z
M 35.203125 72.90625 
L 47.609375 72.90625 
L 47.609375 25.390625 
L 58.015625 25.390625 
L 58.015625 17.1875 
L 47.609375 17.1875 
L 47.609375 0 
L 37.796875 0 
L 37.796875 17.1875 
L 4.890625 17.1875 
L 4.890625 26.703125 
z
" id="DejaVuSans-52"/>
       </defs>
       <use xlink:href="#DejaVuSans-52"/>
      </g>
     </g>
    </g>
    <g id="xtick_4">
     <g id="line2d_4">
      <g>
       <use style="stroke:#000000;stroke-width:0.8;" x="412.741594" xlink:href="#m07499665e2" y="215.44"/>
      </g>
     </g>
     <g id="text_4">
      <!-- 6 -->
      <g transform="translate(409.560344 230.038437)scale(0.1 -0.1)">
       <defs>
        <path d="M 33.015625 40.375 
Q 26.375 40.375 22.484375 35.828125 
Q 18.609375 31.296875 18.609375 23.390625 
Q 18.609375 15.53125 22.484375 10.953125 
Q 26.375 6.390625 33.015625 6.390625 
Q 39.65625 6.390625 43.53125 10.953125 
Q 47.40625 15.53125 47.40625 23.390625 
Q 47.40625 31.296875 43.53125 35.828125 
Q 39.65625 40.375 33.015625 40.375 
z
M 52.59375 71.296875 
L 52.59375 62.3125 
Q 48.875 64.0625 45.09375 64.984375 
Q 41.3125 65.921875 37.59375 65.921875 
Q 27.828125 65.921875 22.671875 59.328125 
Q 17.53125 52.734375 16.796875 39.40625 
Q 19.671875 43.65625 24.015625 45.921875 
Q 28.375 48.1875 33.59375 48.1875 
Q 44.578125 48.1875 50.953125 41.515625 
Q 57.328125 34.859375 57.328125 23.390625 
Q 57.328125 12.15625 50.6875 5.359375 
Q 44.046875 -1.421875 33.015625 -1.421875 
Q 20.359375 -1.421875 13.671875 8.265625 
Q 6.984375 17.96875 6.984375 36.375 
Q 6.984375 53.65625 15.1875 63.9375 
Q 23.390625 74.21875 37.203125 74.21875 
Q 40.921875 74.21875 44.703125 73.484375 
Q 48.484375 72.75 52.59375 71.296875 
z
" id="DejaVuSans-54"/>
       </defs>
       <use xlink:href="#DejaVuSans-54"/>
      </g>
     </g>
    </g>
    <g id="xtick_5">
     <g id="line2d_5">
      <g>
       <use style="stroke:#000000;stroke-width:0.8;" x="533.305459" xlink:href="#m07499665e2" y="215.44"/>
      </g>
     </g>
     <g id="text_5">
      <!-- 8 -->
      <g transform="translate(530.124209 230.038437)scale(0.1 -0.1)">
       <defs>
        <path d="M 31.78125 34.625 
Q 24.75 34.625 20.71875 30.859375 
Q 16.703125 27.09375 16.703125 20.515625 
Q 16.703125 13.921875 20.71875 10.15625 
Q 24.75 6.390625 31.78125 6.390625 
Q 38.8125 6.390625 42.859375 10.171875 
Q 46.921875 13.96875 46.921875 20.515625 
Q 46.921875 27.09375 42.890625 30.859375 
Q 38.875 34.625 31.78125 34.625 
z
M 21.921875 38.8125 
Q 15.578125 40.375 12.03125 44.71875 
Q 8.5 49.078125 8.5 55.328125 
Q 8.5 64.0625 14.71875 69.140625 
Q 20.953125 74.21875 31.78125 74.21875 
Q 42.671875 74.21875 48.875 69.140625 
Q 55.078125 64.0625 55.078125 55.328125 
Q 55.078125 49.078125 51.53125 44.71875 
Q 48 40.375 41.703125 38.8125 
Q 48.828125 37.15625 52.796875 32.3125 
Q 56.78125 27.484375 56.78125 20.515625 
Q 56.78125 9.90625 50.3125 4.234375 
Q 43.84375 -1.421875 31.78125 -1.421875 
Q 19.734375 -1.421875 13.25 4.234375 
Q 6.78125 9.90625 6.78125 20.515625 
Q 6.78125 27.484375 10.78125 32.3125 
Q 14.796875 37.15625 21.921875 38.8125 
z
M 18.3125 54.390625 
Q 18.3125 48.734375 21.84375 45.5625 
Q 25.390625 42.390625 31.78125 42.390625 
Q 38.140625 42.390625 41.71875 45.5625 
Q 45.3125 48.734375 45.3125 54.390625 
Q 45.3125 60.0625 41.71875 63.234375 
Q 38.140625 66.40625 31.78125 66.40625 
Q 25.390625 66.40625 21.84375 63.234375 
Q 18.3125 60.0625 18.3125 54.390625 
z
" id="DejaVuSans-56"/>
       </defs>
       <use xlink:href="#DejaVuSans-56"/>
      </g>
     </g>
    </g>
    <g id="xtick_6">
     <g id="line2d_6">
      <g>
       <use style="stroke:#000000;stroke-width:0.8;" x="653.869324" xlink:href="#m07499665e2" y="215.44"/>
      </g>
     </g>
     <g id="text_6">
      <!-- 10 -->
      <g transform="translate(647.506824 230.038437)scale(0.1 -0.1)">
       <defs>
        <path d="M 12.40625 8.296875 
L 28.515625 8.296875 
L 28.515625 63.921875 
L 10.984375 60.40625 
L 10.984375 69.390625 
L 28.421875 72.90625 
L 38.28125 72.90625 
L 38.28125 8.296875 
L 54.390625 8.296875 
L 54.390625 0 
L 12.40625 0 
z
" id="DejaVuSans-49"/>
       </defs>
       <use xlink:href="#DejaVuSans-49"/>
       <use x="63.623047" xlink:href="#DejaVuSans-48"/>
      </g>
     </g>
    </g>
    <g id="xtick_7">
     <g id="line2d_7">
      <g>
       <use style="stroke:#000000;stroke-width:0.8;" x="774.433189" xlink:href="#m07499665e2" y="215.44"/>
      </g>
     </g>
     <g id="text_7">
      <!-- 12 -->
      <g transform="translate(768.070689 230.038437)scale(0.1 -0.1)">
       <use xlink:href="#DejaVuSans-49"/>
       <use x="63.623047" xlink:href="#DejaVuSans-50"/>
      </g>
     </g>
    </g>
    <g id="text_8">
     <!-- Time [s] -->
     <g transform="translate(393.633397 243.716563)scale(0.1 -0.1)">
      <defs>
       <path d="M -0.296875 72.90625 
L 61.375 72.90625 
L 61.375 64.59375 
L 35.5 64.59375 
L 35.5 0 
L 25.59375 0 
L 25.59375 64.59375 
L -0.296875 64.59375 
z
" id="DejaVuSans-84"/>
       <path d="M 9.421875 54.6875 
L 18.40625 54.6875 
L 18.40625 0 
L 9.421875 0 
z
M 9.421875 75.984375 
L 18.40625 75.984375 
L 18.40625 64.59375 
L 9.421875 64.59375 
z
" id="DejaVuSans-105"/>
       <path d="M 52 44.1875 
Q 55.375 50.25 60.0625 53.125 
Q 64.75 56 71.09375 56 
Q 79.640625 56 84.28125 50.015625 
Q 88.921875 44.046875 88.921875 33.015625 
L 88.921875 0 
L 79.890625 0 
L 79.890625 32.71875 
Q 79.890625 40.578125 77.09375 44.375 
Q 74.3125 48.1875 68.609375 48.1875 
Q 61.625 48.1875 57.5625 43.546875 
Q 53.515625 38.921875 53.515625 30.90625 
L 53.515625 0 
L 44.484375 0 
L 44.484375 32.71875 
Q 44.484375 40.625 41.703125 44.40625 
Q 38.921875 48.1875 33.109375 48.1875 
Q 26.21875 48.1875 22.15625 43.53125 
Q 18.109375 38.875 18.109375 30.90625 
L 18.109375 0 
L 9.078125 0 
L 9.078125 54.6875 
L 18.109375 54.6875 
L 18.109375 46.1875 
Q 21.1875 51.21875 25.484375 53.609375 
Q 29.78125 56 35.6875 56 
Q 41.65625 56 45.828125 52.96875 
Q 50 49.953125 52 44.1875 
z
" id="DejaVuSans-109"/>
       <path d="M 56.203125 29.59375 
L 56.203125 25.203125 
L 14.890625 25.203125 
Q 15.484375 15.921875 20.484375 11.0625 
Q 25.484375 6.203125 34.421875 6.203125 
Q 39.59375 6.203125 44.453125 7.46875 
Q 49.3125 8.734375 54.109375 11.28125 
L 54.109375 2.78125 
Q 49.265625 0.734375 44.1875 -0.34375 
Q 39.109375 -1.421875 33.890625 -1.421875 
Q 20.796875 -1.421875 13.15625 6.1875 
Q 5.515625 13.8125 5.515625 26.8125 
Q 5.515625 40.234375 12.765625 48.109375 
Q 20.015625 56 32.328125 56 
Q 43.359375 56 49.78125 48.890625 
Q 56.203125 41.796875 56.203125 29.59375 
z
M 47.21875 32.234375 
Q 47.125 39.59375 43.09375 43.984375 
Q 39.0625 48.390625 32.421875 48.390625 
Q 24.90625 48.390625 20.390625 44.140625 
Q 15.875 39.890625 15.1875 32.171875 
z
" id="DejaVuSans-101"/>
       <path id="DejaVuSans-32"/>
       <path d="M 8.59375 75.984375 
L 29.296875 75.984375 
L 29.296875 69 
L 17.578125 69 
L 17.578125 -6.203125 
L 29.296875 -6.203125 
L 29.296875 -13.1875 
L 8.59375 -13.1875 
z
" id="DejaVuSans-91"/>
       <path d="M 44.28125 53.078125 
L 44.28125 44.578125 
Q 40.484375 46.53125 36.375 47.5 
Q 32.28125 48.484375 27.875 48.484375 
Q 21.1875 48.484375 17.84375 46.4375 
Q 14.5 44.390625 14.5 40.28125 
Q 14.5 37.15625 16.890625 35.375 
Q 19.28125 33.59375 26.515625 31.984375 
L 29.59375 31.296875 
Q 39.15625 29.25 43.1875 25.515625 
Q 47.21875 21.78125 47.21875 15.09375 
Q 47.21875 7.46875 41.1875 3.015625 
Q 35.15625 -1.421875 24.609375 -1.421875 
Q 20.21875 -1.421875 15.453125 -0.5625 
Q 10.6875 0.296875 5.421875 2 
L 5.421875 11.28125 
Q 10.40625 8.6875 15.234375 7.390625 
Q 20.0625 6.109375 24.8125 6.109375 
Q 31.15625 6.109375 34.5625 8.28125 
Q 37.984375 10.453125 37.984375 14.40625 
Q 37.984375 18.0625 35.515625 20.015625 
Q 33.0625 21.96875 24.703125 23.78125 
L 21.578125 24.515625 
Q 13.234375 26.265625 9.515625 29.90625 
Q 5.8125 33.546875 5.8125 39.890625 
Q 5.8125 47.609375 11.28125 51.796875 
Q 16.75 56 26.8125 56 
Q 31.78125 56 36.171875 55.265625 
Q 40.578125 54.546875 44.28125 53.078125 
z
" id="DejaVuSans-115"/>
       <path d="M 30.421875 75.984375 
L 30.421875 -13.1875 
L 9.71875 -13.1875 
L 9.71875 -6.203125 
L 21.390625 -6.203125 
L 21.390625 69 
L 9.71875 69 
L 9.71875 75.984375 
z
" id="DejaVuSans-93"/>
      </defs>
      <use xlink:href="#DejaVuSans-84"/>
      <use x="57.958984" xlink:href="#DejaVuSans-105"/>
      <use x="85.742188" xlink:href="#DejaVuSans-109"/>
      <use x="183.154297" xlink:href="#DejaVuSans-101"/>
      <use x="244.677734" xlink:href="#DejaVuSans-32"/>
      <use x="276.464844" xlink:href="#DejaVuSans-91"/>
      <use x="315.478516" xlink:href="#DejaVuSans-115"/>
      <use x="367.578125" xlink:href="#DejaVuSans-93"/>
     </g>
    </g>
   </g>
   <g id="matplotlib.axis_2">
    <g id="ytick_1">
     <g id="line2d_8">
      <defs>
       <path d="M 0 0 
L -3.5 0 
" id="m1cd18f6f0e" style="stroke:#000000;stroke-width:0.8;"/>
      </defs>
      <g>
       <use style="stroke:#000000;stroke-width:0.8;" x="51.05" xlink:href="#m1cd18f6f0e" y="206.071155"/>
      </g>
     </g>
     <g id="text_9">
      <!-- 0 -->
      <g transform="translate(37.6875 209.870374)scale(0.1 -0.1)">
       <use xlink:href="#DejaVuSans-48"/>
      </g>
     </g>
    </g>
    <g id="ytick_2">
     <g id="line2d_9">
      <g>
       <use style="stroke:#000000;stroke-width:0.8;" x="51.05" xlink:href="#m1cd18f6f0e" y="171.226372"/>
      </g>
     </g>
     <g id="text_10">
      <!-- 20 -->
      <g transform="translate(31.325 175.025591)scale(0.1 -0.1)">
       <use xlink:href="#DejaVuSans-50"/>
       <use x="63.623047" xlink:href="#DejaVuSans-48"/>
      </g>
     </g>
    </g>
    <g id="ytick_3">
     <g id="line2d_10">
      <g>
       <use style="stroke:#000000;stroke-width:0.8;" x="51.05" xlink:href="#m1cd18f6f0e" y="136.381589"/>
      </g>
     </g>
     <g id="text_11">
      <!-- 40 -->
      <g transform="translate(31.325 140.180807)scale(0.1 -0.1)">
       <use xlink:href="#DejaVuSans-52"/>
       <use x="63.623047" xlink:href="#DejaVuSans-48"/>
      </g>
     </g>
    </g>
    <g id="ytick_4">
     <g id="line2d_11">
      <g>
       <use style="stroke:#000000;stroke-width:0.8;" x="51.05" xlink:href="#m1cd18f6f0e" y="101.536805"/>
      </g>
     </g>
     <g id="text_12">
      <!-- 60 -->
      <g transform="translate(31.325 105.336024)scale(0.1 -0.1)">
       <use xlink:href="#DejaVuSans-54"/>
       <use x="63.623047" xlink:href="#DejaVuSans-48"/>
      </g>
     </g>
    </g>
    <g id="ytick_5">
     <g id="line2d_12">
      <g>
       <use style="stroke:#000000;stroke-width:0.8;" x="51.05" xlink:href="#m1cd18f6f0e" y="66.692022"/>
      </g>
     </g>
     <g id="text_13">
      <!-- 80 -->
      <g transform="translate(31.325 70.491241)scale(0.1 -0.1)">
       <use xlink:href="#DejaVuSans-56"/>
       <use x="63.623047" xlink:href="#DejaVuSans-48"/>
      </g>
     </g>
    </g>
    <g id="ytick_6">
     <g id="line2d_13">
      <g>
       <use style="stroke:#000000;stroke-width:0.8;" x="51.05" xlink:href="#m1cd18f6f0e" y="31.847239"/>
      </g>
     </g>
     <g id="text_14">
      <!-- 100 -->
      <g transform="translate(24.9625 35.646458)scale(0.1 -0.1)">
       <use xlink:href="#DejaVuSans-49"/>
       <use x="63.623047" xlink:href="#DejaVuSans-48"/>
       <use x="127.246094" xlink:href="#DejaVuSans-48"/>
      </g>
     </g>
    </g>
    <g id="text_15">
     <!-- Torque [%MVC] -->
     <g transform="translate(18.882812 151.237969)rotate(-90)scale(0.1 -0.1)">
      <defs>
       <path d="M 30.609375 48.390625 
Q 23.390625 48.390625 19.1875 42.75 
Q 14.984375 37.109375 14.984375 27.296875 
Q 14.984375 17.484375 19.15625 11.84375 
Q 23.34375 6.203125 30.609375 6.203125 
Q 37.796875 6.203125 41.984375 11.859375 
Q 46.1875 17.53125 46.1875 27.296875 
Q 46.1875 37.015625 41.984375 42.703125 
Q 37.796875 48.390625 30.609375 48.390625 
z
M 30.609375 56 
Q 42.328125 56 49.015625 48.375 
Q 55.71875 40.765625 55.71875 27.296875 
Q 55.71875 13.875 49.015625 6.21875 
Q 42.328125 -1.421875 30.609375 -1.421875 
Q 18.84375 -1.421875 12.171875 6.21875 
Q 5.515625 13.875 5.515625 27.296875 
Q 5.515625 40.765625 12.171875 48.375 
Q 18.84375 56 30.609375 56 
z
" id="DejaVuSans-111"/>
       <path d="M 41.109375 46.296875 
Q 39.59375 47.171875 37.8125 47.578125 
Q 36.03125 48 33.890625 48 
Q 26.265625 48 22.1875 43.046875 
Q 18.109375 38.09375 18.109375 28.8125 
L 18.109375 0 
L 9.078125 0 
L 9.078125 54.6875 
L 18.109375 54.6875 
L 18.109375 46.1875 
Q 20.953125 51.171875 25.484375 53.578125 
Q 30.03125 56 36.53125 56 
Q 37.453125 56 38.578125 55.875 
Q 39.703125 55.765625 41.0625 55.515625 
z
" id="DejaVuSans-114"/>
       <path d="M 14.796875 27.296875 
Q 14.796875 17.390625 18.875 11.75 
Q 22.953125 6.109375 30.078125 6.109375 
Q 37.203125 6.109375 41.296875 11.75 
Q 45.40625 17.390625 45.40625 27.296875 
Q 45.40625 37.203125 41.296875 42.84375 
Q 37.203125 48.484375 30.078125 48.484375 
Q 22.953125 48.484375 18.875 42.84375 
Q 14.796875 37.203125 14.796875 27.296875 
z
M 45.40625 8.203125 
Q 42.578125 3.328125 38.25 0.953125 
Q 33.9375 -1.421875 27.875 -1.421875 
Q 17.96875 -1.421875 11.734375 6.484375 
Q 5.515625 14.40625 5.515625 27.296875 
Q 5.515625 40.1875 11.734375 48.09375 
Q 17.96875 56 27.875 56 
Q 33.9375 56 38.25 53.625 
Q 42.578125 51.265625 45.40625 46.390625 
L 45.40625 54.6875 
L 54.390625 54.6875 
L 54.390625 -20.796875 
L 45.40625 -20.796875 
z
" id="DejaVuSans-113"/>
       <path d="M 8.5 21.578125 
L 8.5 54.6875 
L 17.484375 54.6875 
L 17.484375 21.921875 
Q 17.484375 14.15625 20.5 10.265625 
Q 23.53125 6.390625 29.59375 6.390625 
Q 36.859375 6.390625 41.078125 11.03125 
Q 45.3125 15.671875 45.3125 23.6875 
L 45.3125 54.6875 
L 54.296875 54.6875 
L 54.296875 0 
L 45.3125 0 
L 45.3125 8.40625 
Q 42.046875 3.421875 37.71875 1 
Q 33.40625 -1.421875 27.6875 -1.421875 
Q 18.265625 -1.421875 13.375 4.4375 
Q 8.5 10.296875 8.5 21.578125 
z
M 31.109375 56 
z
" id="DejaVuSans-117"/>
       <path d="M 72.703125 32.078125 
Q 68.453125 32.078125 66.03125 28.46875 
Q 63.625 24.859375 63.625 18.40625 
Q 63.625 12.0625 66.03125 8.421875 
Q 68.453125 4.78125 72.703125 4.78125 
Q 76.859375 4.78125 79.265625 8.421875 
Q 81.6875 12.0625 81.6875 18.40625 
Q 81.6875 24.8125 79.265625 28.4375 
Q 76.859375 32.078125 72.703125 32.078125 
z
M 72.703125 38.28125 
Q 80.421875 38.28125 84.953125 32.90625 
Q 89.5 27.546875 89.5 18.40625 
Q 89.5 9.28125 84.9375 3.921875 
Q 80.375 -1.421875 72.703125 -1.421875 
Q 64.890625 -1.421875 60.34375 3.921875 
Q 55.8125 9.28125 55.8125 18.40625 
Q 55.8125 27.59375 60.375 32.9375 
Q 64.9375 38.28125 72.703125 38.28125 
z
M 22.3125 68.015625 
Q 18.109375 68.015625 15.6875 64.375 
Q 13.28125 60.75 13.28125 54.390625 
Q 13.28125 47.953125 15.671875 44.328125 
Q 18.0625 40.71875 22.3125 40.71875 
Q 26.5625 40.71875 28.96875 44.328125 
Q 31.390625 47.953125 31.390625 54.390625 
Q 31.390625 60.6875 28.953125 64.34375 
Q 26.515625 68.015625 22.3125 68.015625 
z
M 66.40625 74.21875 
L 74.21875 74.21875 
L 28.609375 -1.421875 
L 20.796875 -1.421875 
z
M 22.3125 74.21875 
Q 30.03125 74.21875 34.609375 68.875 
Q 39.203125 63.53125 39.203125 54.390625 
Q 39.203125 45.171875 34.640625 39.84375 
Q 30.078125 34.515625 22.3125 34.515625 
Q 14.546875 34.515625 10.03125 39.859375 
Q 5.515625 45.21875 5.515625 54.390625 
Q 5.515625 63.484375 10.046875 68.84375 
Q 14.59375 74.21875 22.3125 74.21875 
z
" id="DejaVuSans-37"/>
       <path d="M 9.8125 72.90625 
L 24.515625 72.90625 
L 43.109375 23.296875 
L 61.8125 72.90625 
L 76.515625 72.90625 
L 76.515625 0 
L 66.890625 0 
L 66.890625 64.015625 
L 48.09375 14.015625 
L 38.1875 14.015625 
L 19.390625 64.015625 
L 19.390625 0 
L 9.8125 0 
z
" id="DejaVuSans-77"/>
       <path d="M 28.609375 0 
L 0.78125 72.90625 
L 11.078125 72.90625 
L 34.1875 11.53125 
L 57.328125 72.90625 
L 67.578125 72.90625 
L 39.796875 0 
z
" id="DejaVuSans-86"/>
       <path d="M 64.40625 67.28125 
L 64.40625 56.890625 
Q 59.421875 61.53125 53.78125 63.8125 
Q 48.140625 66.109375 41.796875 66.109375 
Q 29.296875 66.109375 22.65625 58.46875 
Q 16.015625 50.828125 16.015625 36.375 
Q 16.015625 21.96875 22.65625 14.328125 
Q 29.296875 6.6875 41.796875 6.6875 
Q 48.140625 6.6875 53.78125 8.984375 
Q 59.421875 11.28125 64.40625 15.921875 
L 64.40625 5.609375 
Q 59.234375 2.09375 53.4375 0.328125 
Q 47.65625 -1.421875 41.21875 -1.421875 
Q 24.65625 -1.421875 15.125 8.703125 
Q 5.609375 18.84375 5.609375 36.375 
Q 5.609375 53.953125 15.125 64.078125 
Q 24.65625 74.21875 41.21875 74.21875 
Q 47.75 74.21875 53.53125 72.484375 
Q 59.328125 70.75 64.40625 67.28125 
z
" id="DejaVuSans-67"/>
      </defs>
      <use xlink:href="#DejaVuSans-84"/>
      <use x="44.083984" xlink:href="#DejaVuSans-111"/>
      <use x="105.265625" xlink:href="#DejaVuSans-114"/>
      <use x="144.628906" xlink:href="#DejaVuSans-113"/>
      <use x="208.105469" xlink:href="#DejaVuSans-117"/>
      <use x="271.484375" xlink:href="#DejaVuSans-101"/>
      <use x="333.007812" xlink:href="#DejaVuSans-32"/>
      <use x="364.794922" xlink:href="#DejaVuSans-91"/>
      <use x="403.808594" xlink:href="#DejaVuSans-37"/>
      <use x="498.828125" xlink:href="#DejaVuSans-77"/>
      <use x="585.107422" xlink:href="#DejaVuSans-86"/>
      <use x="653.515625" xlink:href="#DejaVuSans-67"/>
      <use x="723.339844" xlink:href="#DejaVuSans-93"/>
     </g>
    </g>
   </g>
   <g id="line2d_14">
    <path clip-path="url(#p88e06bbd94)" d="M 51.05 206.118754 
L 75.675169 206.104179 
L 77.061654 206.128112 
L 79.955187 206.099961 
L 86.164226 206.012477 
L 86.827327 206.012071 
L 88.394657 206.054023 
L 89.570155 206.019762 
L 93.458339 206.022232 
L 94.061159 206.035156 
L 96.140885 206.049849 
L 97.497229 206.023327 
L 100.300339 206.073572 
L 104.037819 206.097886 
L 105.936699 206.03864 
L 107.172479 206.063229 
L 109.523474 206.067864 
L 110.759254 206.104184 
L 112.838981 206.084917 
L 116.576461 206.041833 
L 117.932804 206.022615 
L 121.640143 206.013378 
L 134.118503 205.895373 
L 135.354282 205.913659 
L 140.146696 205.854986 
L 143.733471 205.836079 
L 152.233224 205.766629 
L 153.589567 205.754141 
L 154.101963 205.709774 
L 155.307602 205.692554 
L 156.995496 205.648095 
L 159.406773 205.547378 
L 164.530738 205.076588 
L 165.103416 204.947377 
L 165.887081 204.779351 
L 167.785962 203.871563 
L 168.35864 203.315587 
L 168.96146 202.566073 
L 169.59442 201.46475 
L 170.408226 199.395879 
L 171.011045 197.065872 
L 171.613865 193.834957 
L 172.487953 187.625476 
L 174.356693 172.66172 
L 176.285715 154.410152 
L 178.154454 137.756587 
L 179.932771 123.820622 
L 182.313908 107.527455 
L 183.760674 99.610872 
L 187.468013 83.085549 
L 189.397035 76.434986 
L 190.904083 72.611787 
L 193.556488 67.2712 
L 194.430576 65.776951 
L 196.902135 61.952886 
L 200.308065 56.603365 
L 202.538496 53.653129 
L 204.648364 51.313511 
L 206.517104 49.28317 
L 207.572037 48.161528 
L 211.550645 44.289284 
L 213.509808 42.723956 
L 220.472371 37.525422 
L 221.708151 36.513035 
L 223.8783 34.760656 
L 225.385348 33.422473 
L 228.791278 31.214338 
L 229.514661 30.775878 
L 230.509313 30.166521 
L 231.081991 29.964774 
L 231.594388 29.744741 
L 232.227348 29.491019 
L 232.830167 29.222724 
L 233.55355 28.944741 
L 234.186511 28.837112 
L 234.819471 28.856265 
L 235.512713 29.062319 
L 237.230748 29.784415 
L 237.803427 29.766668 
L 239.431039 29.646369 
L 239.853012 29.800059 
L 241.088792 30.411045 
L 244.344016 31.76492 
L 245.609937 32.277379 
L 247.448536 32.866446 
L 249.076148 33.135897 
L 251.849117 33.300239 
L 254.13983 33.684743 
L 255.496174 33.85582 
L 257.455337 34.366416 
L 257.87731 34.669393 
L 258.992526 35.701183 
L 261.222957 38.433272 
L 261.976481 39.911182 
L 262.639583 41.78899 
L 263.302684 44.556102 
L 264.056208 48.910006 
L 265.774243 59.679055 
L 266.768895 63.687123 
L 268.064957 68.961631 
L 268.637635 72.393424 
L 269.180172 77.024797 
L 269.692569 83.498068 
L 270.265247 93.903464 
L 271.621591 120.495048 
L 272.073705 124.472094 
L 272.52582 126.590575 
L 273.369767 129.158939 
L 275.02752 133.744686 
L 275.841326 137.636355 
L 276.444145 141.679649 
L 277.137387 147.752151 
L 278.704718 164.493727 
L 279.578806 172.250456 
L 280.483035 178.382185 
L 281.176277 181.722392 
L 282.562761 187.122366 
L 283.406708 189.385784 
L 284.40136 191.795495 
L 285.93855 194.210539 
L 286.541369 194.830492 
L 287.234611 195.62187 
L 288.108699 196.513732 
L 289.284197 197.5598 
L 289.856875 198.021995 
L 291.002232 198.898545 
L 291.57491 199.256984 
L 293.684778 200.341629 
L 297.000284 201.558268 
L 297.572963 201.712819 
L 298.688178 202.002488 
L 300.255509 202.282957 
L 305.108204 202.701643 
L 305.952151 202.743044 
L 306.524829 202.792323 
L 313.125701 203.130144 
L 314.391622 203.188797 
L 315.989093 203.248964 
L 317.435859 203.335725 
L 318.490793 203.376586 
L 319.847137 203.455722 
L 321.20348 203.484901 
L 321.987145 203.499391 
L 327.894775 203.471407 
L 328.256466 203.45177 
L 328.67844 203.440171 
L 329.190836 203.434161 
L 330.24577 203.434164 
L 332.355638 203.389795 
L 333.139303 203.393306 
L 338.323549 203.360968 
L 339.860738 203.342677 
L 340.011443 203.134656 
L 340.192289 202.445531 
L 340.463557 200.335715 
L 341.1568 192.366553 
L 342.211733 180.390966 
L 343.35709 171.244205 
L 343.929769 168.205389 
L 344.803857 165.147841 
L 345.316253 163.932569 
L 345.677945 163.609924 
L 346.039636 163.558867 
L 346.612315 163.50553 
L 346.943865 163.574832 
L 347.275416 163.912719 
L 347.998799 165.075529 
L 348.872887 166.76351 
L 349.475706 168.73983 
L 350.922473 174.286443 
L 352.067829 179.228676 
L 354.026992 186.479251 
L 355.5039 190.70806 
L 357.372639 194.419294 
L 358.93997 196.540264 
L 359.934622 197.483214 
L 360.688146 198.061816 
L 363.702242 199.955071 
L 366.053238 200.927068 
L 367.04789 201.187452 
L 367.771273 201.390752 
L 369.398885 201.644708 
L 371.629316 201.990346 
L 372.412982 202.049021 
L 373.106224 202.21523 
L 374.613272 202.532963 
L 378.471316 203.081819 
L 380.581183 203.103197 
L 384.800919 202.984354 
L 385.705148 203.023761 
L 386.880645 203.078426 
L 393.782927 203.46877 
L 411.385251 203.651619 
L 412.349762 203.638165 
L 423.803329 203.65194 
L 432.363363 203.614734 
L 432.785337 203.62169 
L 433.779989 203.661933 
L 435.618588 203.671396 
L 438.783389 203.705497 
L 446.559758 203.389935 
L 447.946243 203.174883 
L 450.839776 202.731155 
L 459.460092 200.852269 
L 463.890814 199.208453 
L 467.718717 197.345599 
L 470.793095 196.263836 
L 471.546619 196.022401 
L 475.223817 194.810448 
L 475.796496 194.592475 
L 476.278751 194.476427 
L 477.243262 194.144629 
L 478.991438 193.535652 
L 485.682733 191.40222 
L 497.889824 188.473043 
L 499.035181 188.376821 
L 501.476599 188.187815 
L 502.531533 188.084133 
L 503.465903 188.043948 
L 508.167893 187.927191 
L 508.620008 187.943488 
L 510.88058 187.90525 
L 512.086219 187.929672 
L 512.930166 187.957625 
L 513.774113 188.032579 
L 515.914122 188.040736 
L 516.908774 188.022931 
L 517.391029 188.058652 
L 521.007945 188.027226 
L 522.575275 188.122192 
L 523.720632 188.19178 
L 525.498949 188.299117 
L 532.582076 187.997625 
L 534.089124 187.935939 
L 534.57138 187.971687 
L 535.053635 187.888891 
L 535.867441 187.879385 
L 537.37449 187.715923 
L 542.287467 187.786698 
L 547.773123 188.397484 
L 552.143563 188.287407 
L 554.464417 188.144112 
L 554.645263 187.734492 
L 554.886391 186.576471 
L 555.308364 183.19784 
L 555.941325 176.219419 
L 556.905836 166.194707 
L 557.900488 158.475651 
L 558.503307 155.267001 
L 559.22669 152.674167 
L 559.889791 150.969875 
L 560.311765 150.44931 
L 560.763879 150.253937 
L 561.39684 150.112237 
L 561.758531 150.305717 
L 562.270928 150.860595 
L 563.325861 152.539791 
L 563.808117 153.7447 
L 564.923333 157.4107 
L 565.556293 160.109701 
L 567.696302 170.046754 
L 568.118275 170.835204 
L 568.419685 171.030616 
L 569.987015 171.253873 
L 570.710398 171.327104 
L 571.463922 171.696229 
L 572.579138 172.517394 
L 574.086186 174.367013 
L 575.231543 176.014575 
L 576.798873 177.82278 
L 578.004512 178.453371 
L 578.667613 178.675975 
L 579.722547 178.992986 
L 580.536353 179.284927 
L 581.139172 179.450546 
L 584.394397 180.885841 
L 586.232996 181.143987 
L 586.715251 181.184505 
L 587.408493 181.247539 
L 590.181462 181.754929 
L 591.085691 181.926743 
L 593.255841 182.059811 
L 596.631629 181.906829 
L 597.656422 181.84985 
L 602.117285 181.970722 
L 605.854765 182.112584 
L 606.457584 182.115055 
L 607.060403 182.116239 
L 607.753646 182.158227 
L 610.134782 182.290524 
L 611.521266 182.59653 
L 613.691416 183.334098 
L 615.168323 184.225288 
L 616.645231 185.479226 
L 619.237354 188.54694 
L 621.528067 191.861083 
L 623.698217 194.973621 
L 625.536816 197.227563 
L 628.15908 199.759795 
L 629.635987 200.806083 
L 631.143035 201.621168 
L 631.685573 201.868347 
L 632.318533 202.099386 
L 632.83093 202.335663 
L 633.46389 202.505675 
L 634.006427 202.725798 
L 635.001079 202.96755 
L 635.513475 203.156404 
L 636.59855 203.363583 
L 644.465342 204.275292 
L 648.021976 204.473578 
L 652.934954 204.613389 
L 653.628196 204.658785 
L 654.863976 204.702137 
L 656.461447 204.75412 
L 660.018081 204.822504 
L 661.344284 204.86294 
L 694.589769 205.048357 
L 695.403575 205.04749 
L 712.07153 205.118895 
L 712.945618 205.105592 
L 714.181397 205.121564 
L 716.321406 205.127997 
L 737.600928 205.219113 
L 740.283474 205.037065 
L 741.760381 205.096698 
L 742.996161 205.228533 
L 746.10068 205.285357 
L 746.7035 205.322954 
L 750.13957 205.252995 
L 751.043799 205.285163 
L 756.017058 205.395848 
L 756.710301 205.405579 
L 761.261586 205.408476 
L 762.376802 205.406297 
L 765.511463 205.360785 
L 766.777383 205.345668 
L 768.22415 205.358332 
L 768.736546 205.334638 
L 769.188661 205.362964 
L 772.715154 205.662584 
L 773.378255 205.719471 
L 774.403048 205.803816 
L 775.066149 205.825111 
L 776.211506 205.785849 
L 776.874607 205.675251 
L 776.874607 205.675251 
" style="fill:none;stroke:#000000;stroke-linecap:square;stroke-width:1.5;"/>
   </g>
   <g id="line2d_15">
    <defs>
     <path d="M 0 3 
L 0 -3 
" id="m6bdb4bd218" style="stroke:#000000;"/>
    </defs>
    <g clip-path="url(#p88e06bbd94)">
     <use style="stroke:#000000;" x="338.817861" xlink:href="#m6bdb4bd218" y="20.101818"/>
    </g>
   </g>
   <g id="line2d_16">
    <g clip-path="url(#p88e06bbd94)">
     <use style="stroke:#000000;" x="553.300976" xlink:href="#m6bdb4bd218" y="20.101818"/>
    </g>
   </g>
   <g id="patch_3">
    <path d="M 51.05 215.44 
L 51.05 10.8 
" style="fill:none;stroke:#000000;stroke-linecap:square;stroke-linejoin:miter;stroke-width:0.8;"/>
   </g>
   <g id="patch_4">
    <path d="M 51.05 215.44 
L 776.874607 215.44 
" style="fill:none;stroke:#000000;stroke-linecap:square;stroke-linejoin:miter;stroke-width:0.8;"/>
   </g>
  </g>
  <g id="axes_2">
   <g id="patch_5">
    <path d="M 51.05 462.04 
L 776.874607 462.04 
L 776.874607 257.4 
L 51.05 257.4 
z
" style="fill:#ffffff;"/>
   </g>
   <g id="matplotlib.axis_3">
    <g id="xtick_8">
     <g id="line2d_17">
      <g>
       <use style="stroke:#000000;stroke-width:0.8;" x="51.05" xlink:href="#m07499665e2" y="462.04"/>
      </g>
     </g>
     <g id="text_16">
      <!-- 0 -->
      <g transform="translate(47.86875 476.638437)scale(0.1 -0.1)">
       <use xlink:href="#DejaVuSans-48"/>
      </g>
     </g>
    </g>
    <g id="xtick_9">
     <g id="line2d_18">
      <g>
       <use style="stroke:#000000;stroke-width:0.8;" x="176.009044" xlink:href="#m07499665e2" y="462.04"/>
      </g>
     </g>
     <g id="text_17">
      <!-- 2 -->
      <g transform="translate(172.827794 476.638437)scale(0.1 -0.1)">
       <use xlink:href="#DejaVuSans-50"/>
      </g>
     </g>
    </g>
    <g id="xtick_10">
     <g id="line2d_19">
      <g>
       <use style="stroke:#000000;stroke-width:0.8;" x="300.968088" xlink:href="#m07499665e2" y="462.04"/>
      </g>
     </g>
     <g id="text_18">
      <!-- 4 -->
      <g transform="translate(297.786838 476.638437)scale(0.1 -0.1)">
       <use xlink:href="#DejaVuSans-52"/>
      </g>
     </g>
    </g>
    <g id="xtick_11">
     <g id="line2d_20">
      <g>
       <use style="stroke:#000000;stroke-width:0.8;" x="425.927132" xlink:href="#m07499665e2" y="462.04"/>
      </g>
     </g>
     <g id="text_19">
      <!-- 6 -->
      <g transform="translate(422.745882 476.638437)scale(0.1 -0.1)">
       <use xlink:href="#DejaVuSans-54"/>
      </g>
     </g>
    </g>
    <g id="xtick_12">
     <g id="line2d_21">
      <g>
       <use style="stroke:#000000;stroke-width:0.8;" x="550.886176" xlink:href="#m07499665e2" y="462.04"/>
      </g>
     </g>
     <g id="text_20">
      <!-- 8 -->
      <g transform="translate(547.704926 476.638437)scale(0.1 -0.1)">
       <use xlink:href="#DejaVuSans-56"/>
      </g>
     </g>
    </g>
    <g id="xtick_13">
     <g id="line2d_22">
      <g>
       <use style="stroke:#000000;stroke-width:0.8;" x="675.84522" xlink:href="#m07499665e2" y="462.04"/>
      </g>
     </g>
     <g id="text_21">
      <!-- 10 -->
      <g transform="translate(669.48272 476.638437)scale(0.1 -0.1)">
       <use xlink:href="#DejaVuSans-49"/>
       <use x="63.623047" xlink:href="#DejaVuSans-48"/>
      </g>
     </g>
    </g>
    <g id="text_22">
     <!-- Time [s] -->
     <g transform="translate(393.633397 490.316562)scale(0.1 -0.1)">
      <use xlink:href="#DejaVuSans-84"/>
      <use x="57.958984" xlink:href="#DejaVuSans-105"/>
      <use x="85.742188" xlink:href="#DejaVuSans-109"/>
      <use x="183.154297" xlink:href="#DejaVuSans-101"/>
      <use x="244.677734" xlink:href="#DejaVuSans-32"/>
      <use x="276.464844" xlink:href="#DejaVuSans-91"/>
      <use x="315.478516" xlink:href="#DejaVuSans-115"/>
      <use x="367.578125" xlink:href="#DejaVuSans-93"/>
     </g>
    </g>
   </g>
   <g id="matplotlib.axis_4">
    <g id="ytick_7">
     <g id="line2d_23">
      <g>
       <use style="stroke:#000000;stroke-width:0.8;" x="51.05" xlink:href="#m1cd18f6f0e" y="452.472183"/>
      </g>
     </g>
     <g id="text_23">
      <!-- 0 -->
      <g transform="translate(37.6875 456.271401)scale(0.1 -0.1)">
       <use xlink:href="#DejaVuSans-48"/>
      </g>
     </g>
    </g>
    <g id="ytick_8">
     <g id="line2d_24">
      <g>
       <use style="stroke:#000000;stroke-width:0.8;" x="51.05" xlink:href="#m1cd18f6f0e" y="422.550743"/>
      </g>
     </g>
     <g id="text_24">
      <!-- 20 -->
      <g transform="translate(31.325 426.349962)scale(0.1 -0.1)">
       <use xlink:href="#DejaVuSans-50"/>
       <use x="63.623047" xlink:href="#DejaVuSans-48"/>
      </g>
     </g>
    </g>
    <g id="ytick_9">
     <g id="line2d_25">
      <g>
       <use style="stroke:#000000;stroke-width:0.8;" x="51.05" xlink:href="#m1cd18f6f0e" y="392.629303"/>
      </g>
     </g>
     <g id="text_25">
      <!-- 40 -->
      <g transform="translate(31.325 396.428522)scale(0.1 -0.1)">
       <use xlink:href="#DejaVuSans-52"/>
       <use x="63.623047" xlink:href="#DejaVuSans-48"/>
      </g>
     </g>
    </g>
    <g id="ytick_10">
     <g id="line2d_26">
      <g>
       <use style="stroke:#000000;stroke-width:0.8;" x="51.05" xlink:href="#m1cd18f6f0e" y="362.707864"/>
      </g>
     </g>
     <g id="text_26">
      <!-- 60 -->
      <g transform="translate(31.325 366.507083)scale(0.1 -0.1)">
       <use xlink:href="#DejaVuSans-54"/>
       <use x="63.623047" xlink:href="#DejaVuSans-48"/>
      </g>
     </g>
    </g>
    <g id="ytick_11">
     <g id="line2d_27">
      <g>
       <use style="stroke:#000000;stroke-width:0.8;" x="51.05" xlink:href="#m1cd18f6f0e" y="332.786424"/>
      </g>
     </g>
     <g id="text_27">
      <!-- 80 -->
      <g transform="translate(31.325 336.585643)scale(0.1 -0.1)">
       <use xlink:href="#DejaVuSans-56"/>
       <use x="63.623047" xlink:href="#DejaVuSans-48"/>
      </g>
     </g>
    </g>
    <g id="ytick_12">
     <g id="line2d_28">
      <g>
       <use style="stroke:#000000;stroke-width:0.8;" x="51.05" xlink:href="#m1cd18f6f0e" y="302.864985"/>
      </g>
     </g>
     <g id="text_28">
      <!-- 100 -->
      <g transform="translate(24.9625 306.664203)scale(0.1 -0.1)">
       <use xlink:href="#DejaVuSans-49"/>
       <use x="63.623047" xlink:href="#DejaVuSans-48"/>
       <use x="127.246094" xlink:href="#DejaVuSans-48"/>
      </g>
     </g>
    </g>
    <g id="ytick_13">
     <g id="line2d_29">
      <g>
       <use style="stroke:#000000;stroke-width:0.8;" x="51.05" xlink:href="#m1cd18f6f0e" y="272.943545"/>
      </g>
     </g>
     <g id="text_29">
      <!-- 120 -->
      <g transform="translate(24.9625 276.742764)scale(0.1 -0.1)">
       <use xlink:href="#DejaVuSans-49"/>
       <use x="63.623047" xlink:href="#DejaVuSans-50"/>
       <use x="127.246094" xlink:href="#DejaVuSans-48"/>
      </g>
     </g>
    </g>
    <g id="text_30">
     <!-- Torque [%MVC] -->
     <g transform="translate(18.882812 397.837969)rotate(-90)scale(0.1 -0.1)">
      <use xlink:href="#DejaVuSans-84"/>
      <use x="44.083984" xlink:href="#DejaVuSans-111"/>
      <use x="105.265625" xlink:href="#DejaVuSans-114"/>
      <use x="144.628906" xlink:href="#DejaVuSans-113"/>
      <use x="208.105469" xlink:href="#DejaVuSans-117"/>
      <use x="271.484375" xlink:href="#DejaVuSans-101"/>
      <use x="333.007812" xlink:href="#DejaVuSans-32"/>
      <use x="364.794922" xlink:href="#DejaVuSans-91"/>
      <use x="403.808594" xlink:href="#DejaVuSans-37"/>
      <use x="498.828125" xlink:href="#DejaVuSans-77"/>
      <use x="585.107422" xlink:href="#DejaVuSans-86"/>
      <use x="653.515625" xlink:href="#DejaVuSans-67"/>
      <use x="723.339844" xlink:href="#DejaVuSans-93"/>
     </g>
    </g>
   </g>
   <g id="line2d_30">
    <path clip-path="url(#pdbccd76b87)" d="M 51.05 452.437062 
L 51.518596 452.439434 
L 52.049672 452.461851 
L 57.860268 452.458846 
L 58.766221 452.46897 
L 69.637658 452.46982 
L 71.886921 452.482009 
L 74.136183 452.493103 
L 75.729411 452.491937 
L 78.947107 452.492916 
L 79.85306 452.474387 
L 88.506473 452.482706 
L 96.909969 452.438073 
L 97.534764 452.410288 
L 98.471957 452.429044 
L 99.627828 452.448311 
L 102.783044 452.4484 
L 104.501231 452.450568 
L 110.967862 452.439469 
L 112.248692 452.471084 
L 121.401942 452.468161 
L 123.213848 452.474677 
L 124.963275 452.481536 
L 125.713029 452.4741 
L 128.087251 452.483069 
L 129.4618 452.51448 
L 131.023788 452.480683 
L 167.105712 452.457399 
L 167.699268 452.495245 
L 168.292823 452.552387 
L 169.417454 452.63246 
L 171.2606 452.701073 
L 172.885068 452.727355 
L 173.759781 452.724375 
L 188.161311 452.531159 
L 188.973545 452.551019 
L 192.19124 452.594348 
L 194.409263 452.530528 
L 197.095883 452.481353 
L 197.751918 452.493576 
L 200.501017 452.495 
L 202.406642 452.438488 
L 208.810793 452.211013 
L 211.153775 452.098547 
L 211.997249 452.095895 
L 214.715108 452.010487 
L 216.370815 451.963218 
L 217.995283 452.005454 
L 227.648369 452.283701 
L 228.83548 452.284269 
L 230.678626 452.296378 
L 232.67797 452.329593 
L 240.331712 452.236089 
L 241.487583 452.257464 
L 247.235699 452.442914 
L 247.766775 452.422198 
L 248.579009 452.363918 
L 249.360003 452.323595 
L 250.203476 452.263738 
L 256.951265 452.189563 
L 265.479719 452.11861 
L 266.510632 452.051375 
L 267.041708 452.02631 
L 267.9789 451.981603 
L 272.602385 452.057018 
L 281.349518 452.166326 
L 282.536629 452.158042 
L 288.94078 452.195069 
L 289.440616 452.201664 
L 292.90823 452.219629 
L 294.813855 452.211148 
L 300.249573 452.197343 
L 301.874041 452.178666 
L 303.779666 452.167349 
L 304.966777 452.181671 
L 305.685292 452.186592 
L 309.121666 452.220683 
L 309.746461 452.196058 
L 311.339689 452.171762 
L 320.836576 452.166216 
L 321.64881 452.190287 
L 345.984584 452.261206 
L 348.483764 452.229303 
L 349.420957 452.257764 
L 350.32691 452.235822 
L 352.076337 452.194673 
L 353.513366 452.161773 
L 359.48016 451.911367 
L 362.354218 451.719983 
L 364.009926 451.600627 
L 364.6972 451.536457 
L 365.884311 451.4255 
L 370.476556 451.086136 
L 371.163831 451.03895 
L 376.193432 450.647615 
L 377.130625 450.573 
L 378.348976 450.478332 
L 380.504519 450.267104 
L 391.032319 448.912155 
L 396.468037 447.589101 
L 397.498949 447.097338 
L 398.436142 446.329675 
L 399.123417 445.464812 
L 399.748212 444.157416 
L 400.435487 442.110234 
L 401.091522 439.36852 
L 401.810036 435.332336 
L 402.747229 428.467271 
L 403.746902 419.468948 
L 405.183931 404.443476 
L 409.432538 360.094305 
L 410.713368 349.516537 
L 412.150397 339.360458 
L 413.681146 330.005398 
L 414.930736 323.442301 
L 416.117847 318.20552 
L 418.492069 309.137773 
L 419.960338 304.360891 
L 421.959682 299.082641 
L 424.052746 294.495157 
L 425.396056 291.895051 
L 426.676886 289.864683 
L 427.957716 288.020414 
L 430.11326 284.908471 
L 432.393762 281.89309 
L 433.98699 280.058123 
L 435.798896 278.280457 
L 436.704849 277.585924 
L 440.328662 275.17581 
L 441.640732 274.773982 
L 442.921562 274.56547 
L 444.108673 274.286702 
L 445.327024 274.267817 
L 446.514134 274.752481 
L 448.044883 275.610068 
L 451.0439 277.053913 
L 452.137291 277.675633 
L 452.480929 277.668697 
L 452.824566 277.363352 
L 453.511841 276.358973 
L 454.355314 275.069312 
L 454.94887 274.491718 
L 455.386227 274.310604 
L 455.854823 274.358084 
L 456.26094 274.636702 
L 456.698297 275.215205 
L 457.135653 276.106457 
L 457.60425 277.654453 
L 458.229045 280.547069 
L 458.760121 284.0314 
L 459.166238 288.241231 
L 459.572355 294.987485 
L 460.16591 309.328381 
L 460.696986 320.123202 
L 461.009384 322.769357 
L 461.259302 323.448143 
L 461.4155 323.465702 
L 461.665419 323.153017 
L 462.165255 322.545585 
L 462.415173 322.599321 
L 462.79005 322.671168 
L 463.008728 322.459606 
L 463.321126 321.735259 
L 463.883442 320.459887 
L 464.164599 320.255123 
L 464.633196 320.333155 
L 465.008073 320.264018 
L 465.539149 319.785944 
L 465.914026 319.630817 
L 466.163944 319.775671 
L 466.632541 320.094495 
L 466.882459 319.975231 
L 467.226096 319.521791 
L 467.94461 318.514855 
L 468.475686 317.942367 
L 468.944283 316.906775 
L 469.662797 315.34128 
L 470.068914 315.009463 
L 470.475031 314.655127 
L 471.693382 313.289697 
L 472.286937 312.978429 
L 472.755534 312.295719 
L 473.536528 311.183071 
L 474.348761 310.393576 
L 475.098516 309.522985 
L 475.567112 309.411173 
L 475.973229 309.297227 
L 477.1291 308.567222 
L 478.753568 308.639668 
L 479.971918 309.20893 
L 480.596714 309.211047 
L 481.346468 309.460623 
L 481.752585 309.389477 
L 482.314901 309.299222 
L 482.783497 309.506545 
L 484.220526 310.711001 
L 484.782842 311.64685 
L 486.126151 314.281263 
L 486.688467 316.375035 
L 487.531941 320.425216 
L 489.843683 331.694126 
L 491.343191 337.85689 
L 491.967987 341.545385 
L 492.624022 346.83184 
L 493.217577 353.620759 
L 493.936092 364.933554 
L 495.185682 384.831357 
L 495.841717 391.572907 
L 496.466512 395.852614 
L 499.028173 411.074253 
L 501.246196 426.059698 
L 502.152149 430.545864 
L 503.183061 434.540977 
L 504.245213 437.500812 
L 505.119926 439.326517 
L 506.463236 441.407321 
L 507.681586 442.973587 
L 509.462253 444.997746 
L 511.773995 446.894363 
L 513.992018 448.067704 
L 515.02293 448.433239 
L 518.146906 449.115501 
L 518.896661 449.181531 
L 525.956847 449.970254 
L 527.425115 450.044352 
L 528.487267 450.065072 
L 530.861489 450.106161 
L 531.611243 450.142022 
L 534.360342 450.268895 
L 536.734564 450.392161 
L 537.26564 450.451068 
L 537.984155 450.465458 
L 543.044996 450.565968 
L 561.070338 450.625612 
L 562.194969 450.606471 
L 562.788525 450.592855 
L 563.694478 450.597318 
L 567.162091 450.560739 
L 567.31829 450.340223 
L 567.505729 449.659969 
L 567.786887 447.644124 
L 568.536641 439.932532 
L 569.505073 430.096447 
L 570.442266 423.34748 
L 571.129541 419.373689 
L 571.691857 417.351233 
L 572.59781 414.932611 
L 573.003927 414.376164 
L 573.378804 414.250964 
L 574.378476 414.284248 
L 574.847073 414.554236 
L 575.253189 415.129234 
L 576.690218 417.562523 
L 577.471213 419.753 
L 578.877002 424.310666 
L 580.813867 431.341889 
L 581.876019 434.721576 
L 583.500486 439.27134 
L 585.531071 443.33678 
L 587.093059 445.464668 
L 588.092731 446.408609 
L 588.873725 447.039374 
L 591.404146 448.238301 
L 593.309771 448.815661 
L 595.215397 449.241039 
L 597.714578 449.582552 
L 605.493278 450.824194 
L 607.273945 450.920098 
L 608.429816 450.900978 
L 611.085195 450.806908 
L 611.928669 450.740932 
L 613.615616 450.681629 
L 617.520586 450.754403 
L 618.27034 450.756506 
L 619.457451 450.789295 
L 620.95696 450.892416 
L 625.049369 450.983289 
L 629.547894 451.028511 
L 636.451881 450.973988 
L 640.731729 450.983781 
L 642.387436 451.008584 
L 645.79257 451.017218 
L 647.448277 451.02165 
L 648.32299 451.001668 
L 654.758381 451.03118 
L 656.601527 451.066592 
L 658.88203 451.0696 
L 660.475257 451.088472 
L 665.41114 451.101775 
L 666.317093 451.091745 
L 670.378262 451.125994 
L 671.534133 451.141536 
L 673.564717 451.117377 
L 675.470343 451.131967 
L 676.782413 451.113081 
L 680.218786 451.159313 
L 681.562096 451.140295 
L 685.342107 451.154995 
L 694.307919 451.072246 
L 695.057673 451.105682 
L 696.400983 451.120092 
L 698.993883 451.107609 
L 699.556198 451.06787 
L 700.930748 451.113266 
L 701.586783 451.120928 
L 703.24249 451.102449 
L 705.023157 451.144477 
L 705.772911 451.115942 
L 707.928454 451.139384 
L 708.709448 451.148422 
L 709.334244 451.118467 
L 714.520044 451.16458 
L 717.987657 451.153977 
L 719.081049 451.17284 
L 720.767996 451.164322 
L 723.891972 451.175666 
L 724.922884 451.156247 
L 727.297106 451.178517 
L 727.984381 451.167837 
L 731.045878 451.177552 
L 735.481924 451.182476 
L 737.762426 451.169764 
L 756.475043 450.988759 
L 757.412236 450.987463 
L 759.53654 450.948524 
L 764.816059 450.873233 
L 766.06565 450.854923 
L 767.971275 450.835149 
L 769.783181 450.819428 
L 770.720374 450.792736 
L 771.876245 450.800197 
L 773.87559 450.79642 
L 775.656256 450.789537 
L 776.874607 450.816662 
L 776.874607 450.816662 
" style="fill:none;stroke:#000000;stroke-linecap:square;stroke-width:1.5;"/>
   </g>
   <g id="line2d_31">
    <g clip-path="url(#pdbccd76b87)">
     <use style="stroke:#000000;" x="451.168859" xlink:href="#m6bdb4bd218" y="266.701818"/>
    </g>
   </g>
   <g id="line2d_32">
    <g clip-path="url(#pdbccd76b87)">
     <use style="stroke:#000000;" x="566.0687" xlink:href="#m6bdb4bd218" y="266.701818"/>
    </g>
   </g>
   <g id="patch_6">
    <path d="M 51.05 462.04 
L 51.05 257.4 
" style="fill:none;stroke:#000000;stroke-linecap:square;stroke-linejoin:miter;stroke-width:0.8;"/>
   </g>
   <g id="patch_7">
    <path d="M 51.05 462.04 
L 776.874607 462.04 
" style="fill:none;stroke:#000000;stroke-linecap:square;stroke-linejoin:miter;stroke-width:0.8;"/>
   </g>
  </g>
 </g>
 <defs>
  <clipPath id="p88e06bbd94">
   <rect height="204.64" width="725.824607" x="51.05" y="10.8"/>
  </clipPath>
  <clipPath id="pdbccd76b87">
   <rect height="204.64" width="725.824607" x="51.05" y="257.4"/>
  </clipPath>
 </defs>
</svg>
